<svg width="42" height="33" viewBox="0 0 42 33" fill="none" xmlns="http://www.w3.org/2000/svg">
<path d="M9.2332 14.2323L8.4327 17.2209C8.2387 17.946 8.19874 18.6962 8.27737 19.4374L6.00865 21.3053C5.5852 21.654 4.95743 21.2776 5.06636 20.74L6.0615 15.7978C6.12982 15.4588 5.89006 15.1353 5.54588 15.1024L0.527635 14.6158C-0.0182755 14.5629 -0.196164 13.8533 0.260803 13.5497L4.45986 10.759C4.74732 10.5675 4.80662 10.1692 4.58748 9.90239L1.38356 6.00883C1.03487 5.58538 1.41127 4.95826 1.94945 5.06654L6.89165 6.06168C7.23066 6.13 7.55421 5.89024 7.58773 5.54606L8.07434 0.527816C8.12719 -0.0187391 8.83681 -0.195983 9.14103 0.260983L11.9318 4.4594C12.1232 4.74686 12.5215 4.80615 12.7884 4.58702L16.6813 1.3831C17.1047 1.03441 17.7319 1.41081 17.6236 1.94834L16.8933 5.56798C16.7187 5.76456 16.5434 5.96049 16.3835 6.17383L14.3114 8.94334L13.6211 9.86629C11.5116 10.4309 9.80682 12.0918 9.2332 14.2323ZM41.1093 22.7728L40.3088 25.7609C40.1071 26.5137 39.7043 27.1537 39.1777 27.6532C39.0025 27.8191 38.8136 27.97 38.6131 28.1043L37.7114 31.4707C37.6379 31.7459 37.5116 31.9927 37.3473 32.2041C36.8529 32.8383 36.0105 33.1503 35.1855 32.9292L33.1933 32.3956C32.0931 32.101 31.4402 30.9699 31.7347 29.8697L32.2684 27.8775L16.3307 23.6069L15.797 25.5991C15.5025 26.6993 14.3713 27.3522 13.2711 27.0576L11.2789 26.524C10.4539 26.3029 9.8803 25.6113 9.76944 24.8153C9.7327 24.5498 9.74688 24.2726 9.82035 23.9981L10.722 20.6317C10.6154 20.4151 10.5272 20.1897 10.4584 19.9582C10.2522 19.2628 10.2232 18.5068 10.4249 17.754L11.2254 14.7653C11.5677 13.4892 12.4732 12.5204 13.6031 12.0448C13.983 11.8847 14.3846 11.7822 14.7948 11.7406L15.9633 10.1789L18.0354 7.40938C18.2578 7.11225 18.4988 6.83575 18.7573 6.58181C19.2729 6.07328 19.8549 5.65112 20.4807 5.32435C20.794 5.16064 21.1182 5.02078 21.4508 4.90605C22.1165 4.67531 22.8165 4.54319 23.5287 4.51676C24.2409 4.49034 24.9666 4.56961 25.6833 4.76168L33.5903 6.88022C34.307 7.07229 34.9748 7.36619 35.5787 7.74582C36.4799 8.31169 37.2437 9.0713 37.8145 9.96942C38.383 10.864 38.7581 11.8927 38.8896 12.998L39.2995 16.4327L39.5309 18.3695C40.2002 18.8527 40.7104 19.5242 40.9965 20.2985C41.2795 21.0642 41.3375 21.9221 41.1093 22.7728ZM16.4731 15.1043C15.2775 14.784 14.2682 15.3647 13.9485 16.5564C13.6288 17.7482 14.2134 18.7555 15.4084 19.0759C16.6039 19.3962 18.3435 20.0755 18.6626 18.8838C18.9822 17.6921 17.6681 15.4247 16.4731 15.1043ZM35.2036 16.9199L34.7937 13.4853C34.7563 13.1714 34.6718 12.8711 34.5474 12.592C34.1736 11.7547 33.4389 11.1089 32.5224 10.8634L24.6154 8.74483C24.0181 8.58483 23.3866 8.60745 22.8023 8.80975C22.218 9.01206 21.7078 9.38477 21.3373 9.87983L19.2652 12.6493L30.351 15.6193L35.2036 16.9199ZM36.3953 20.4423C35.1997 20.1219 32.9278 21.429 32.6087 22.6201C32.2897 23.8118 34.1356 24.0935 35.3312 24.4138C36.5268 24.7341 37.5361 24.1534 37.8558 22.9617C38.1748 21.7706 37.5909 20.7626 36.3953 20.4423Z" fill="#3572EF"/>
</svg>
