<svg width="33" height="33" viewBox="0 0 33 33" fill="none" xmlns="http://www.w3.org/2000/svg">
<rect y="30" width="5" height="3" fill="#3572EF"/>
<rect x="1" y="8" width="3" height="22" fill="#3572EF"/>
<rect x="29" y="8" width="3" height="22" fill="#3572EF"/>
<rect x="28" y="30" width="5" height="3" fill="#3572EF"/>
<path d="M26.0191 7.33924L25.4805 5.94888L24.5256 3.48333C23.7057 1.36711 21.7502 0 19.5427 0H13.4573C11.2502 0 9.29429 1.36711 8.47444 3.48333L7.51946 5.94888L6.98088 7.33924C5.82512 7.79297 5 8.93891 5 10.2917V12.6667C5 13.4643 5.29517 14.1842 5.76667 14.7413V17.4167C5.76667 18.291 6.45331 19 7.3 19H8.83333C9.68002 19 10.3667 18.291 10.3667 17.4167V15.8333H22.6333V17.4167C22.6333 18.291 23.32 19 24.1667 19H25.7C26.5467 19 27.2333 18.291 27.2333 17.4167V14.7413C27.7048 14.1847 28 13.4648 28 12.6667V10.2917C28 8.93891 27.1749 7.79297 26.0191 7.33924ZM11.3216 4.65945C11.671 3.75794 12.5167 3.16667 13.4573 3.16667H19.5427C20.4833 3.16667 21.329 3.75794 21.6784 4.65945L22.6333 7.125H10.3667L11.3216 4.65945ZM8.83333 12.6568C7.91333 12.6568 7.3 12.0254 7.3 11.0784C7.3 10.1314 7.91333 9.5 8.83333 9.5C9.75333 9.5 11.1333 10.9205 11.1333 11.8676C11.1333 12.8146 9.75333 12.6568 8.83333 12.6568ZM24.1667 12.6568C23.2467 12.6568 21.8667 12.8146 21.8667 11.8676C21.8667 10.9205 23.2467 9.5 24.1667 9.5C25.0867 9.5 25.7 10.1314 25.7 11.0784C25.7 12.0254 25.0867 12.6568 24.1667 12.6568Z" fill="#3572EF"/>
<rect x="4" y="20" width="6" height="3" fill="#3572EF"/>
<rect x="23" y="20" width="6" height="3" fill="#3572EF"/>
</svg>
