<svg width="33" height="33" viewBox="0 0 33 33" fill="none" xmlns="http://www.w3.org/2000/svg">
<path d="M26.8125 8.25V2.0625C26.8125 0.923613 25.8889 0 24.75 0H2.0625C0.923613 0 0 0.923613 0 2.0625V8.25C0 9.38889 0.923613 10.3125 2.0625 10.3125H24.75C25.8889 10.3125 26.8125 9.38889 26.8125 8.25ZM28.875 4.125V12.375C28.875 13.5139 27.9514 14.4375 26.8125 14.4375H16.5C14.2216 14.4375 12.375 16.2841 12.375 18.5625V20.625C11.2361 20.625 10.3125 21.5486 10.3125 22.6875V30.9375C10.3125 32.0764 11.2361 33 12.375 33H16.5C17.6389 33 18.5625 32.0764 18.5625 30.9375V22.6875C18.5625 21.5486 17.6389 20.625 16.5 20.625V18.5625H26.8125C30.2298 18.5625 33 15.7923 33 12.375V8.25C33 5.97158 31.1534 4.125 28.875 4.125Z" fill="#3572EF"/>
</svg>
