<svg width="33" height="33" viewBox="0 0 33 33" fill="none" xmlns="http://www.w3.org/2000/svg">
<g clip-path="url(#clip0_11_199)">
<path d="M10.7651 19.9379C8.17926 20.1042 5.83252 21.0891 4.50092 24.5979C4.34945 24.9981 3.98529 25.2411 3.56055 25.2411C2.84447 25.2411 0.630508 23.4577 -0.000488281 23.0272C0.00015625 28.3349 2.44486 33 8.25016 33C13.1396 33 16.5002 30.1789 16.5002 25.2534C16.5002 25.0529 16.4583 24.8615 16.4376 24.6649L10.7651 19.9379ZM29.5126 0C28.5355 0 27.6196 0.432481 26.9209 1.06025C13.7461 12.8294 12.3752 13.1059 12.3752 16.5703C12.3752 17.4533 12.5846 18.295 12.9378 19.0646L17.0512 22.4922C17.5159 22.6082 17.9948 22.6875 18.4943 22.6875C22.4975 22.6875 24.8178 19.7568 32.1043 6.15785C32.5799 5.23295 33.0002 4.23393 33.0002 3.19365C33.0002 1.33031 31.3244 0 29.5126 0Z" fill="#3572EF"/>
</g>
<defs>
<clipPath id="clip0_11_199">
<rect width="33" height="33" fill="white"/>
</clipPath>
</defs>
</svg>
