<svg width="33" height="33" viewBox="0 0 33 33" fill="none" xmlns="http://www.w3.org/2000/svg">
<path d="M32.2975 25.5016L24.7508 17.9549C23.2621 16.4662 21.0387 16.1762 19.247 17.0591L12.377 10.189V6.1869L4.12782 0L0.00322229 4.1246L6.19012 12.3738H10.1923L17.0623 19.2438C16.1858 21.0354 16.4694 23.2589 17.9581 24.7476L25.5048 32.2943C26.4458 33.2352 27.9667 33.2352 28.9012 32.2943L32.2975 28.898C33.232 27.957 33.232 26.4361 32.2975 25.5016ZM21.3802 14.5005C23.2041 14.5005 24.9184 15.2095 26.2073 16.4984L27.4576 17.7487C28.4758 17.304 29.4425 16.6853 30.2803 15.8475C32.6713 13.4565 33.4833 10.0924 32.7229 7.03759C32.5811 6.45757 31.8528 6.25779 31.4275 6.68314L26.6327 11.478L22.2567 10.7497L21.5285 6.37379L26.3233 1.57895C26.7487 1.1536 26.5424 0.425349 25.956 0.277121C22.9012 -0.476907 19.5371 0.335124 17.1525 2.71966C15.3158 4.55639 14.4522 6.97959 14.4973 9.39635L19.7884 14.6874C20.3104 14.565 20.8518 14.5005 21.3802 14.5005ZM14.6842 19.7852L11.0301 16.131L1.20838 25.9592C-0.402793 27.5704 -0.402793 30.1804 1.20838 31.7916C2.81955 33.4028 5.42965 33.4028 7.04082 31.7916L15.0064 23.826C14.5166 22.5435 14.3684 21.145 14.6842 19.7852ZM4.12782 30.4189C3.27712 30.4189 2.5811 29.7229 2.5811 28.8722C2.5811 28.015 3.27068 27.3255 4.12782 27.3255C4.98496 27.3255 5.67454 28.015 5.67454 28.8722C5.67454 29.7229 4.98496 30.4189 4.12782 30.4189Z" fill="#3572EF"/>
</svg>
