<svg width="42" height="33" viewBox="0 0 42 33" fill="none" xmlns="http://www.w3.org/2000/svg">
<path d="M37.6973 12.7471L36.7314 10.3323L35.0187 6.05C33.5483 2.37445 30.0412 0 26.082 0H15.168C11.2097 0 7.70172 2.37445 6.23133 6.05L4.51859 10.3323L3.55266 12.7471C1.47984 13.5352 0 15.5255 0 17.875V22C0 23.3853 0.529375 24.6357 1.375 25.6034V30.25C1.375 31.7685 2.60648 33 4.125 33H6.875C8.39352 33 9.625 31.7685 9.625 30.25V27.5H31.625V30.25C31.625 31.7685 32.8565 33 34.375 33H37.125C38.6435 33 39.875 31.7685 39.875 30.25V25.6034C40.7206 24.6366 41.25 23.3862 41.25 22V17.875C41.25 15.5255 39.7702 13.5352 37.6973 12.7471ZM11.3377 8.09273C11.9642 6.52695 13.481 5.5 15.168 5.5H26.082C27.769 5.5 29.2858 6.52695 29.9123 8.09273L31.625 12.375H9.625L11.3377 8.09273ZM6.875 21.9828C5.225 21.9828 4.125 20.8862 4.125 19.2414C4.125 17.5966 5.225 16.5 6.875 16.5C8.525 16.5 11 18.9673 11 20.6121C11 22.257 8.525 21.9828 6.875 21.9828ZM34.375 21.9828C32.725 21.9828 30.25 22.257 30.25 20.6121C30.25 18.9673 32.725 16.5 34.375 16.5C36.025 16.5 37.125 17.5966 37.125 19.2414C37.125 20.8862 36.025 21.9828 34.375 21.9828Z" fill="#3572EF"/>
</svg>
